HIERARCHY
ROOT Hips
{
	OFFSET 0.00000 0.00000 0.00000
	CHANNELS 6 Xposition Yposition Zposition Zrotation Yrotation Xrotation 
	JOINT LHipJoint
	{
		OFFSET 0 0 0
		CHANNELS 3 Zrotation Yrotation Xrotation
		JOINT LeftUpLeg
		{
			OFFSET 1.30186 -1.90722 0.65024
			CHANNELS 3 Zrotation Yrotation Xrotation
			JOINT LeftLeg
			{
				OFFSET 2.56413 -7.04489 0.00000
				CHANNELS 3 Zrotation Yrotation Xrotation
				JOINT LeftFoot
				{
					OFFSET 2.79321 -7.67428 0.00000
					CHANNELS 3 Zrotation Yrotation Xrotation
					JOINT LeftToeBase
					{
						OFFSET 0.15723 -0.43198 2.08537
						CHANNELS 3 Zrotation Yrotation Xrotation
						End Site
						{
							OFFSET 0.00000 -0.00000 1.07411
						}
					}
				}
			}
		}
	}
	JOINT RHipJoint
	{
		OFFSET 0 0 0
		CHANNELS 3 Zrotation Yrotation Xrotation
		JOINT RightUpLeg
		{
			OFFSET -1.28627 -1.90723 0.65024
			CHANNELS 3 Zrotation Yrotation Xrotation
			JOINT RightLeg
			{
				OFFSET -2.56567 -7.04913 0.00000
				CHANNELS 3 Zrotation Yrotation Xrotation
				JOINT RightFoot
				{
					OFFSET -2.75597 -7.57198 0.00000
					CHANNELS 3 Zrotation Yrotation Xrotation
					JOINT RightToeBase
					{
						OFFSET -0.17500 -0.48081 2.22901
						CHANNELS 3 Zrotation Yrotation Xrotation
						End Site
						{
							OFFSET -0.00000 -0.00000 1.14762
						}
					}
				}
			}
		}
	}
	JOINT LowerBack
	{
		OFFSET 0 0 0
		CHANNELS 3 Zrotation Yrotation Xrotation
		JOINT Spine
		{
			OFFSET -0.04522 2.07467 -0.16566
			CHANNELS 3 Zrotation Yrotation Xrotation
			JOINT Spine1
			{
				OFFSET -0.01178 2.08825 -0.05393
				CHANNELS 3 Zrotation Yrotation Xrotation
				JOINT Neck
				{
					OFFSET 0 0 0
					CHANNELS 3 Zrotation Yrotation Xrotation
					JOINT Neck1
					{
						OFFSET -0.05182 1.80489 0.16014
						CHANNELS 3 Zrotation Yrotation Xrotation
						JOINT Head
						{
							OFFSET 0.14739 1.78840 -0.33342
							CHANNELS 3 Zrotation Yrotation Xrotation
							End Site
							{
								OFFSET 0.04364 1.83899 -0.13460
							}
						}
					}
				}
				JOINT LeftShoulder
				{
					OFFSET 0 0 0
					CHANNELS 3 Zrotation Yrotation Xrotation
					JOINT LeftArm
					{
						OFFSET 3.01264 1.29090 -0.06579
						CHANNELS 3 Zrotation Yrotation Xrotation
						JOINT LeftForeArm
						{
							OFFSET 5.55680 -0.00000 0.00000
							CHANNELS 3 Zrotation Yrotation Xrotation
							JOINT LeftHand
							{
								OFFSET 3.63979 -0.00000 -0.00000
								CHANNELS 3 Zrotation Yrotation Xrotation
								JOINT LeftFingerBase
								{
									OFFSET 0 0 0
									CHANNELS 3 Zrotation Yrotation Xrotation
									JOINT LeftHandIndex1
									{
										OFFSET 0.56942 -0.00000 -0.00000
										CHANNELS 3 Zrotation Yrotation Xrotation
										End Site
										{
											OFFSET 0.45908 -0.00000 -0.00000
										}
									}
								}
								JOINT LThumb
								{
									OFFSET 0 0 0
									CHANNELS 3 Zrotation Yrotation Xrotation
									End Site
									{
										OFFSET 0.46609 -0.00000 0.46609
									}
								}
							}
						}
					}
				}
				JOINT RightShoulder
				{
					OFFSET 0 0 0
					CHANNELS 3 Zrotation Yrotation Xrotation
					JOINT RightArm
					{
						OFFSET -3.15796 1.37283 -0.36748
						CHANNELS 3 Zrotation Yrotation Xrotation
						JOINT RightForeArm
						{
							OFFSET -5.34339 -0.00000 0.00000
							CHANNELS 3 Zrotation Yrotation Xrotation
							JOINT RightHand
							{
								OFFSET -3.65101 -0.00000 -0.00000
								CHANNELS 3 Zrotation Yrotation Xrotation
								JOINT RightFingerBase
								{
									OFFSET 0 0 0
									CHANNELS 3 Zrotation Yrotation Xrotation
									JOINT RightHandIndex1
									{
										OFFSET -0.69425 -0.00000 -0.00000
										CHANNELS 3 Zrotation Yrotation Xrotation
										End Site
										{
											OFFSET -0.55972 -0.00000 -0.00000
										}
									}
								}
								JOINT RThumb
								{
									OFFSET 0 0 0
									CHANNELS 3 Zrotation Yrotation Xrotation
									End Site
									{
										OFFSET -0.56827 -0.00000 0.56827
									}
								}
							}
						}
					}
				}
			}
		}
	}
}
MOTION
Frames: 14
Frame Time: .0083333
8.9674 18.6617 9.7052 0 0 0 0 0 0 -21 0 0 0 0 0 0 0 0 0 0 0 0 0 0 21 0 0 0 0 0 0 0 0 0 0 0 0 0 0 0 0 0 0 0 0 0 0 -16 0 0 21 0 0 11 0 0 0 -8 0 0 0 0 0 0 0 0 0 0 0 0 0 0 0 0 0 0 0 0 8 0 0 0 0 0 0 0 0 0 0 0 0 0 0 0 0 0
8.9674 18.6617 9.7052 179.9780 3.1821 -175.9130 0.0000 0.0000 0.0000 -15.1366 -5.8421 -5.7527 1.4194 7.5343 21.3083 0.7827 1.6559 -17.3901 0.6411 -5.1225 -14.2582 0.0000 0.0000 0.0000 16.2856 12.8641 -2.9875 -1.3871 -7.4517 21.0608 -0.0000 -0.0000 0.0000 -0.0000 -0.0000 0.0000 -2.1580 1.4102 0.6753 -0.3068 1.8907 0.8798 0.8886 0.9408 0.4634 -3.5596 -3.0307 -11.5392 2.5465 -3.9949 12.9455 1.0399 -1.9742 5.9374 0.0000 -0.0000 0.0000 -80.2845 3.5163 22.7590 38.2333 -46.9877 -17.1360 -0.0000 0.0000 -17.4686 10.7056 27.9638 5.0660 -7.1250 0.0000 -0.0000 -21.6748 57.0176 -6.5935 0.0000 -0.0000 0.0000 79.7495 -3.5686 23.3397 -23.2352 34.3450 -7.2705 0.0000 0.0000 1.8966 1.0235 34.7037 0.5828 7.1250 -0.0000 -0.0000 18.3520 3.2062 20.4015
8.9533 18.6581 9.7174 180.1820 3.3124 -175.8860 0.0000 0.0000 0.0000 -14.9644 -5.8917 -5.9381 1.4494 7.6103 21.5366 0.7913 1.7670 -17.5320 0.6139 -5.0145 -13.9499 0.0000 0.0000 0.0000 16.3867 12.7100 -3.2188 -1.3931 -7.4673 21.1074 -0.0000 -0.0000 0.0000 -0.0000 -0.0000 0.0000 -1.9006 1.4071 0.6028 -0.2014 1.8882 0.9364 0.8554 0.9389 0.5666 -3.5917 -2.9694 -11.6851 2.4719 -3.8936 13.0721 1.0277 -1.9314 5.9982 0.0000 -0.0000 0.0000 -79.3089 2.5774 22.8482 38.5898 -47.2119 -17.3972 -0.0000 0.0000 -17.1154 10.6141 29.4922 5.2711 -7.1250 0.0000 -0.0000 -22.8601 58.4038 -7.7545 0.0000 -0.0000 0.0000 78.1987 -2.9657 23.9010 -23.8540 35.0095 -7.6226 0.0000 0.0000 1.5654 2.8805 34.6340 1.6380 7.1250 -0.0000 -0.0000 19.3220 3.0141 21.5485
8.9570 18.6584 9.7276 180.3130 3.0476 -175.9690 0.0000 0.0000 0.0000 -14.7843 -6.0169 -5.8856 1.4487 7.6085 21.5311 0.7637 1.7918 -17.2501 0.7143 -5.4013 -15.0567 0.0000 0.0000 0.0000 16.6242 12.9459 -3.0103 -1.4025 -7.4912 21.1790 -0.0000 -0.0000 0.0000 -0.0000 -0.0000 0.0000 -1.8738 1.2964 0.7253 -0.0990 1.7381 0.9747 0.9432 0.8638 0.5391 -3.6686 -2.9563 -11.7803 2.5096 -3.8713 13.2133 1.0520 -1.9222 6.0606 -0.0000 0.0000 0.0000 -78.1563 1.5541 22.9452 38.8329 -47.3631 -17.5758 -0.0000 0.0000 -16.9086 9.2435 29.4335 4.5725 -7.1250 0.0000 -0.0000 -24.2065 58.0523 -8.0382 -0.0000 0.0000 0.0000 76.6232 -2.4613 24.6166 -24.6320 35.8255 -8.0735 0.0000 0.0000 1.2802 3.4307 34.0333 1.9216 7.1250 -0.0000 -0.0000 19.6114 2.4128 21.7111
8.9617 18.6616 9.7311 180.4370 2.7552 -175.9870 0.0000 0.0000 0.0000 -14.6072 -6.1749 -5.8117 1.4396 7.5855 21.4620 0.7531 1.7010 -17.0936 0.7463 -5.5184 -15.3932 0.0000 0.0000 0.0000 16.8234 13.0546 -2.9120 -1.4195 -7.5346 21.3092 -0.2795 -7.9002 -15.8337 -0.0673 -1.6741 4.6058 -1.7956 1.1985 0.7190 -0.0594 1.6068 0.9581 0.9404 0.7984 0.5305 -3.6593 -2.9668 -11.6945 2.5609 -3.9078 13.3017 1.0640 -1.9391 6.0759 -0.0000 0.0000 0.0000 -76.7870 0.5620 23.1347 39.1375 -47.5505 -17.8002 -0.0000 0.0000 -16.9143 7.4388 26.9871 3.3908 -7.1250 0.0000 -0.0000 -24.2587 55.4664 -6.5102 -0.0000 0.0000 0.0000 75.1395 -1.9525 25.0524 -25.3227 36.5321 -8.4813 0.0000 0.0000 1.2846 4.3222 34.0295 2.4219 7.1250 -0.0000 -0.0000 20.0763 2.3609 22.2779
8.9552 18.6674 9.7252 180.3040 2.8462 -175.9860 0.0000 0.0000 0.0000 -14.7953 -6.0762 -5.6782 1.4106 7.5119 21.2411 0.7594 1.7585 -17.1880 0.7324 -5.4678 -15.2479 0.0000 0.0000 0.0000 16.6074 12.8854 -3.0584 -1.4418 -7.5911 21.4789 -0.3038 -7.5777 -15.8315 -0.0692 -1.6973 4.6698 -1.8603 1.1839 0.5453 -0.1484 1.5913 0.9513 0.8895 0.7898 0.6221 -3.6010 -2.9173 -11.6248 2.6171 -3.8707 13.3803 1.0759 -1.9172 6.0875 0.0000 -0.0000 0.0000 -75.3232 -0.3320 23.1744 39.5660 -47.8106 -18.1170 -0.0000 0.0000 -16.7601 6.3031 25.1908 2.6917 -7.1250 0.0000 -0.0000 -24.2114 53.6239 -5.3799 0.0000 -0.0000 0.0000 73.6403 -1.2561 25.3173 -25.9755 37.1845 -8.8728 0.0000 0.0000 0.8956 6.4474 34.2293 3.6372 7.1250 -0.0000 -0.0000 21.1707 2.4555 23.7109
8.9489 18.6738 9.7201 180.0890 2.9398 -175.9650 0.0000 0.0000 0.0000 -15.1011 -5.9651 -5.5923 1.3811 7.4364 21.0150 0.7453 2.0658 -17.1822 0.8527 -5.8892 -16.4633 0.0000 0.0000 0.0000 16.3238 12.8243 -3.2154 -1.4622 -7.6424 21.6330 -0.3107 -7.4929 -15.8397 -0.0619 -1.6048 4.4146 -1.9851 1.1873 0.4328 -0.2996 1.5975 0.8478 0.8059 0.7934 0.5800 -3.4932 -2.8352 -11.4226 2.6831 -3.8143 13.5277 1.0858 -1.8872 6.0968 -0.0000 0.0000 0.0000 -73.6990 -1.0292 23.3115 40.1904 -48.1823 -18.5810 -0.0000 0.0000 -16.6122 6.4389 25.3665 2.7680 -7.1250 0.0000 -0.0000 -24.1889 53.8078 -5.4863 -0.0000 0.0000 0.0000 72.1242 -0.8371 25.5713 -26.8404 38.0265 -9.4006 0.0000 0.0000 0.3740 7.8328 33.8189 4.3783 7.1250 -0.0000 -0.0000 21.8918 2.0255 24.4882
8.9464 18.6765 9.7222 180.1130 2.8607 -176.0660 0.0000 0.0000 0.0000 -15.1271 -6.0736 -5.3572 1.3621 7.3870 20.8671 0.7504 2.1214 -17.2639 0.7798 -5.6380 -15.7376 0.0000 0.0000 0.0000 16.3877 12.7378 -3.1494 -1.4653 -7.6499 21.6557 -0.2814 -7.7590 -15.7142 -0.0280 -1.0808 2.9712 -1.9323 1.1158 0.5637 -0.3205 1.4965 0.7483 0.7509 0.7450 0.4094 -3.4492 -2.7144 -11.2461 2.6741 -3.6827 13.7100 1.0884 -1.8298 6.1189 -0.0000 0.0000 0.0000 -72.1978 -1.6969 23.2342 40.8498 -48.5654 -19.0739 -0.0000 0.0000 -16.4368 7.2498 25.8731 3.1774 -7.1250 0.0000 -0.0000 -23.7224 54.4178 -5.7335 -0.0000 0.0000 0.0000 70.5143 -0.3548 25.8164 -27.5180 38.6687 -9.8210 0.0000 0.0000 0.5862 5.9710 33.6369 3.3158 7.1250 -0.0000 -0.0000 20.9394 1.9159 23.2157
8.9498 18.6759 9.7248 180.1580 2.9537 -176.1690 0.0000 0.0000 0.0000 -15.0226 -5.8355 -5.2686 1.3548 7.3680 20.8103 0.7588 1.7320 -17.1689 0.5921 -4.9263 -13.6986 0.0000 0.0000 0.0000 16.5357 12.7067 -2.8020 -1.4398 -7.5860 21.4636 -0.2597 -7.9315 -15.5979 -0.0064 -0.5179 1.4231 -2.0688 1.0464 0.5855 -0.2100 1.4025 0.7717 0.9404 0.6966 0.4178 -3.5968 -2.5970 -11.3866 2.6826 -3.5071 13.9497 1.1278 -1.7536 6.2161 -0.0000 0.0000 0.0000 -70.9169 -2.5435 22.8118 41.5063 -48.9374 -19.5675 -0.0000 0.0000 -16.2734 7.6939 25.9900 3.3880 -7.1250 0.0000 -0.0000 -23.3652 54.6075 -5.7505 -0.0000 0.0000 0.0000 68.7136 0.4993 26.0195 -28.1301 39.2357 -10.2059 0.0000 0.0000 0.7840 4.1672 33.7743 2.3195 7.1250 -0.0000 -0.0000 19.9987 2.1278 22.0994
8.9455 18.6735 9.7269 180.2310 2.9290 -176.1510 0.0000 0.0000 0.0000 -14.9182 -5.7562 -5.3523 1.3581 7.3767 20.8364 0.7357 1.7251 -16.9157 0.6626 -5.2060 -14.4972 0.0000 0.0000 0.0000 16.6330 12.6045 -2.5168 -1.3860 -7.4491 21.0529 -0.2604 -7.9549 -15.6316 -0.0064 -0.5171 1.4209 -2.1123 0.9685 0.4395 -0.0811 1.3013 0.8186 1.1004 0.6433 0.5469 -3.7239 -2.7868 -11.8392 2.6368 -3.3494 14.4715 1.1583 -1.5322 6.4590 0.0000 -0.0000 0.0000 -69.5779 -3.5778 22.4584 42.1828 -49.3112 -20.0790 -0.0000 0.0000 -16.1195 7.8879 25.9000 3.4632 -7.1250 0.0000 -0.0000 -23.1205 54.5617 -5.6588 0.0000 -0.0000 0.0000 66.7199 1.2286 26.1733 -29.0774 40.0894 -10.8105 0.0000 0.0000 0.3802 5.1426 33.9282 2.8757 7.1250 -0.0000 -0.0000 20.5040 2.2256 22.7725
8.9374 18.6741 9.7285 180.2870 2.8335 -176.1480 0.0000 0.0000 0.0000 -14.8813 -5.8489 -5.3488 1.3615 7.3855 20.8625 0.7284 1.8750 -16.9065 0.7754 -5.6222 -15.6921 0.0000 0.0000 0.0000 16.6364 12.5235 -2.3847 -1.3179 -7.2710 20.5208 -0.2489 -7.9785 -15.4980 -0.0099 -0.6440 1.7699 -1.9970 0.8837 0.4655 -0.0765 1.1845 0.7162 1.0392 0.5866 0.4336 -3.7629 -2.7484 -12.0427 2.6760 -3.2779 14.9791 1.1821 -1.4860 6.6556 -0.0000 0.0000 0.0000 -67.9110 -4.4236 22.1114 42.7292 -49.6062 -20.4943 -0.0000 0.0000 -15.9202 8.5782 25.9582 3.7777 -7.1250 0.0000 -0.0000 -22.4841 54.7451 -5.5933 -0.0000 0.0000 0.0000 64.8593 1.7028 26.2438 -30.0999 40.9788 -11.4751 0.0000 -0.0000 -0.0282 6.1751 34.0013 3.4624 7.1250 -0.0000 -0.0000 21.0361 2.2511 23.4625
8.9327 18.6817 9.7301 180.2360 2.7718 -176.1100 0.0000 0.0000 0.0000 -14.9665 -6.0166 -5.3097 1.3540 7.3659 20.8039 0.7310 1.9778 -16.9840 0.7818 -5.6450 -15.7577 0.0000 0.0000 0.0000 16.5004 12.2966 -2.3253 -1.2472 -7.0807 19.9547 -0.2307 -7.9009 -15.1612 -0.0103 -0.6548 1.7993 -1.9979 0.8481 0.4498 -0.1709 1.1340 0.5434 0.9417 0.5637 0.2690 -3.6520 -2.7321 -11.7623 2.7673 -3.2875 15.0816 1.1961 -1.4718 6.6396 -0.0000 0.0000 0.0000 -66.0552 -5.0997 21.7747 43.4237 -49.9724 -21.0246 -0.0000 0.0000 -15.7122 9.5860 26.5452 4.3163 -7.1250 0.0000 -0.0000 -21.8615 55.4802 -5.8257 -0.0000 0.0000 0.0000 63.2919 2.1874 25.9349 -30.9642 41.7056 -12.0460 0.0000 -0.0000 -0.1514 5.5072 34.1407 3.0973 7.1250 -0.0000 -0.0000 20.6888 2.4097 23.0739
8.9309 18.6905 9.7322 180.1570 2.7280 -175.9850 0.0000 0.0000 0.0000 -15.0483 -6.1867 -5.2762 1.3264 7.2935 20.5878 0.7278 2.0255 -16.9714 0.7171 -5.4115 -15.0861 0.0000 0.0000 0.0000 16.3538 12.0221 -2.3067 -1.1876 -6.9156 19.4657 -0.2152 -7.8030 -14.8328 -0.0141 -0.7661 2.1055 -2.2093 0.8425 0.1626 -0.1570 1.1319 0.4867 1.0784 0.5609 0.3677 -3.5245 -2.7455 -11.5043 2.6840 -3.3197 14.9502 1.1484 -1.4886 6.5502 0.0000 0.0000 0.0000 -64.4788 -5.9348 21.3686 44.4577 -50.5000 -21.8195 -0.0000 0.0000 -15.2929 10.2619 26.8482 4.6744 -7.1250 0.0000 -0.0000 -21.3839 55.8940 -5.9082 0.0000 0.0000 0.0000 61.5595 2.7495 25.4903 -31.9476 42.5053 -12.7054 0.0000 -0.0000 -0.2453 3.7799 33.6967 2.0992 7.1250 -0.0000 -0.0000 19.7971 2.0750 21.8284
8.9285 18.6964 9.7352 180.0440 2.6335 -175.9980 0.0000 0.0000 0.0000 -15.1683 -6.2659 -5.0786 1.2859 7.1857 20.2668 0.7173 2.0814 -16.8841 0.6392 -5.1149 -14.2364 0.0000 0.0000 0.0000 16.2305 11.8689 -2.1514 -1.1471 -6.8009 19.1267 -0.1909 -7.9466 -14.6328 -0.0187 -0.8840 2.4298 -2.4361 0.7939 0.0537 -0.1227 1.0706 0.4963 1.2423 0.5285 0.4360 -3.3923 -2.7021 -11.5138 2.4877 -3.2542 14.8991 1.0698 -1.4673 6.5278 0.0000 -0.0000 0.0000 -63.0003 -6.8121 20.8628 45.5041 -51.0131 -22.6299 -0.0000 0.0000 -15.0032 11.9102 26.1224 5.3056 -7.1250 0.0000 -0.0000 -19.2925 55.5399 -5.1289 0.0000 -0.0000 0.0000 59.6604 3.2460 25.1480 -33.2417 43.5150 -13.5882 0.0000 -0.0000 -0.5220 2.2851 32.8677 1.2406 7.1250 -0.0000 -0.0000 19.0143 1.3777 20.6257
